HIERARCHY
ROOT hip
{
  OFFSET 0 0 0
  CHANNELS 6 Xposition Yposition Zposition Zrotation Yrotation Xrotation
  JOINT abdomen
  {
    OFFSET 0 20.6881 -0.73152
    CHANNELS 3 Zrotation Xrotation Yrotation
    JOINT chest
    {
      OFFSET 0 11.7043 -0.48768
      CHANNELS 3 Zrotation Xrotation Yrotation
      JOINT neck
      {
        OFFSET 0 22.1894 -2.19456
        CHANNELS 3 Zrotation Xrotation Yrotation
        JOINT head
        {
          OFFSET -0.24384 7.07133 1.2192
          CHANNELS 3 Zrotation Xrotation Yrotation
          JOINT leftEye
          {
            OFFSET 4.14528 8.04674 8.04672
            CHANNELS 3 Zrotation Xrotation Yrotation
            End Site
            {
              OFFSET 1 0 0
            }
          }
          JOINT rightEye
          {
            OFFSET -3.6576 8.04674 8.04672
            CHANNELS 3 Zrotation Xrotation Yrotation
            End Site
            {
              OFFSET 1 0 0
            }
          }
        }
      }
      JOINT rCollar
      {
        OFFSET -2.68224 19.2634 -4.8768
        CHANNELS 3 Zrotation Xrotation Yrotation
        JOINT rShldr
        {
          OFFSET -8.77824 -1.95073 1.46304
          CHANNELS 3 Zrotation Xrotation Yrotation
          JOINT rForeArm
          {
            OFFSET -28.1742 -1.7115 0.48768
            CHANNELS 3 Zrotation Xrotation Yrotation
            JOINT rHand
            {
              OFFSET -22.5879 0.773209 7.07136
              CHANNELS 3 Zrotation Xrotation Yrotation
              JOINT rThumb1
              {
                OFFSET -1.2192 -0.487915 3.41376
                CHANNELS 3 Zrotation Xrotation Yrotation
                JOINT rThumb2
                {
                  OFFSET -3.37035 -0.52449 3.41376
                  CHANNELS 3 Zrotation Xrotation Yrotation
                  End Site
                  {
                    OFFSET -1.78271 -1.18214 1.43049
                  }
                }
              }
              JOINT rIndex1
              {
                OFFSET -7.75947 0.938293 5.60832
                CHANNELS 3 Zrotation Xrotation Yrotation
                JOINT rIndex2
                {
                  OFFSET -2.54057 -0.884171 1.56538
                  CHANNELS 3 Zrotation Xrotation Yrotation
                  End Site
                  {
                    OFFSET -1.62519 -0.234802 1.16502
                  }
                }
              }
              JOINT rMid1
              {
                OFFSET -8.24714 1.18213 3.41376
                CHANNELS 3 Zrotation Xrotation Yrotation
                JOINT rMid2
                {
                  OFFSET -3.10165 -0.590103 1.0647
                  CHANNELS 3 Zrotation Xrotation Yrotation
                  End Site
                  {
                    OFFSET -2.48547 -0.328903 0.83742
                  }
                }
              }
              JOINT rRing1
              {
                OFFSET -8.82822 0.546677 1.51678
                CHANNELS 3 Zrotation Xrotation Yrotation
                JOINT rRing2
                {
                  OFFSET -2.60934 -0.819778 -0.0198488
                  CHANNELS 3 Zrotation Xrotation Yrotation
                  End Site
                  {
                    OFFSET -2.33842 -0.294052 0.168128
                  }
                }
              }
              JOINT rPinky1
              {
                OFFSET -8.27202 -0.0477905 -0.4584
                CHANNELS 3 Zrotation Xrotation Yrotation
                JOINT rPinky2
                {
                  OFFSET -1.82734 -0.647385 -0.700984
                  CHANNELS 3 Zrotation Xrotation Yrotation
                  End Site
                  {
                    OFFSET -1.69225 -0.51767 -0.607171
                  }
                }
              }
            }
          }
        }
      }
      JOINT lCollar
      {
        OFFSET 2.68224 19.2634 -4.8768
        CHANNELS 3 Zrotation Xrotation Yrotation
        JOINT lShldr
        {
          OFFSET 8.77824 -1.95073 1.46304
          CHANNELS 3 Zrotation Xrotation Yrotation
          JOINT lForeArm
          {
            OFFSET 28.1742 -1.7115 0.48768
            CHANNELS 3 Zrotation Xrotation Yrotation
            JOINT lHand
            {
              OFFSET 22.5879 0.773209 7.07136
              CHANNELS 3 Zrotation Xrotation Yrotation
              JOINT lThumb1
              {
                OFFSET 1.2192 -0.487915 3.41376
                CHANNELS 3 Zrotation Xrotation Yrotation
                JOINT lThumb2
                {
                  OFFSET 3.37035 -0.52449 3.41376
                  CHANNELS 3 Zrotation Xrotation Yrotation
                  End Site
                  {
                    OFFSET 1.78271 -1.18214 1.43049
                  }
                }
              }
              JOINT lIndex1
              {
                OFFSET 7.75947 0.938293 5.60832
                CHANNELS 3 Zrotation Xrotation Yrotation
                JOINT lIndex2
                {
                  OFFSET 2.54057 -0.884171 1.56538
                  CHANNELS 3 Zrotation Xrotation Yrotation
                  End Site
                  {
                    OFFSET 1.62519 -0.234802 1.16502
                  }
                }
              }
              JOINT lMid1
              {
                OFFSET 8.24714 1.18213 3.41376
                CHANNELS 3 Zrotation Xrotation Yrotation
                JOINT lMid2
                {
                  OFFSET 3.10165 -0.590103 1.0647
                  CHANNELS 3 Zrotation Xrotation Yrotation
                  End Site
                  {
                    OFFSET 2.48547 -0.328903 0.83742
                  }
                }
              }
              JOINT lRing1
              {
                OFFSET 8.82822 0.546677 1.51678
                CHANNELS 3 Zrotation Xrotation Yrotation
                JOINT lRing2
                {
                  OFFSET 2.60934 -0.819778 -0.0198488
                  CHANNELS 3 Zrotation Xrotation Yrotation
                  End Site
                  {
                    OFFSET 2.33842 -0.294052 0.168128
                  }
                }
              }
              JOINT lPinky1
              {
                OFFSET 8.27202 -0.0477905 -0.4584
                CHANNELS 3 Zrotation Xrotation Yrotation
                JOINT lPinky2
                {
                  OFFSET 1.82734 -0.647385 -0.700984
                  CHANNELS 3 Zrotation Xrotation Yrotation
                  End Site
                  {
                    OFFSET 1.69225 -0.51767 -0.607171
                  }
                }
              }
            }
          }
        }
      }
    }
  }
  JOINT rButtock
  {
    OFFSET -8.77824 4.35084 1.2192
    CHANNELS 3 Zrotation Xrotation Yrotation
    JOINT rThigh
    {
      OFFSET 0 -1.70687 -2.19456
      CHANNELS 3 Zrotation Xrotation Yrotation
      JOINT rShin
      {
        OFFSET 0 -36.8199 0.73152
        CHANNELS 3 Zrotation Xrotation Yrotation
        JOINT rFoot
        {
          OFFSET 0.73152 -45.1104 -5.12064
          CHANNELS 3 Zrotation Xrotation Yrotation
          End Site
          {
            OFFSET -1.1221 -3.69964 12.103
          }
        }
      }
    }
  }
  JOINT lButtock
  {
    OFFSET 8.77824 4.35084 1.2192
    CHANNELS 3 Zrotation Xrotation Yrotation
    JOINT lThigh
    {
      OFFSET 0 -1.70687 -2.19456
      CHANNELS 3 Zrotation Xrotation Yrotation
      JOINT lShin
      {
        OFFSET 0 -36.8199 0.73152
        CHANNELS 3 Zrotation Xrotation Yrotation
        JOINT lFoot
        {
          OFFSET -0.73152 -45.1104 -5.12064
          CHANNELS 3 Zrotation Xrotation Yrotation
          End Site
          {
            OFFSET 1.1221 -3.69964 12.103
          }
        }
      }
    }
  }
}
MOTION
Frames:	4
Frame Time:	0.03333
-36.5784 56.5241 4.052300000000001 -14.402304 26.958346 -0.569781 -3.104589 9.873348 -16.227349 13.131921 -6.291248 33.532265 -3.681849 28.400229 169.707605 -42.261479 39.048535 -123.488273 -75.916541 -15.889178 20.284757 14.692008 -7.457141 -53.632649 -113.347018 -75.111498 -126.388929 9.936587 -13.266988 -79.244528 5.146334 -12.714534 -121.243531 -178.599502 -11.988192 148.336141 -169.388723 10.202549 109.170051 -146.280565 17.992347 63.981219 0.213142 29.287505 2.38257 -159.770355 -45.973334 -31.33428 17.220059 28.058269 3.704938 -158.518304 -72.664362 -124.443656 -21.464353 -34.059348 -23.299889 106.989822 62.987344 -63.948057 -133.400073 10.544417 -148.000082 -135.218021 34.130307 -160.773816 -40.475084 -53.397703 -15.801266 107.929403 11.161173 -166.107767 -3.569654 77.293365 150.928197 -133.422897 -31.42736 -125.338491 16.632457 5.602101 -23.142436 84.126881 75.202639 -45.375278 178.144761 -41.256859 -149.914326 -105.124807 43.565757 172.18836 39.16078 55.833335 12.731001 160.884103 29.269931 -102.138441 -79.398163 -84.532812 -73.968992 1.092751 67.368607 2.205783 10.284325 36.350383 154.068684 -126.411902 24.376266 -76.155342 -179.877955 79.121343 1.735738 116.039322 64.142332 -48.163482 -59.409298 -8.458106 -45.10663 129.907248 -41.786622 -117.686073 -113.586841 48.667302 -10.353773 -177.810739 -5.741124 43.346509 -39.91141 70.499031 130.503246 7.169862 -5.559754 -69.179251
-37.0969 57.2646 3.6997 -15.243813 23.083658 0.076518 -1.917575 1.691405 -171.376345 -11.069151 2.930009 -172.10926 -11.493283 5.874205 9.750608 30.105004 -29.974279 24.267135 -69.75299 -11.585713 16.562818 3.35856 -1.229263 -40.196994 -8.286979 9.595676 -8.104969 -84.222363 -13.210921 151.974087 126.81111 -67.161276 -138.954198 -19.339455 18.390485 11.551797 -9.045183 17.466052 -24.112929 -107.394013 -24.33623 102.403256 20.625026 -52.821786 -28.686734 9.20815 -29.617176 -174.149085 17.361651 43.456365 0.495231 -51.813354 44.00887 -16.360085 -23.172958 -31.637523 -29.305667 -91.565525 -36.013256 -123.638922 -47.293463 46.063597 87.661458 45.176348 -48.125694 -24.513997 126.321231 24.652507 -135.852124 -153.195035 -3.669852 170.570518 -19.397118 35.364618 -104.271811 -16.002184 70.827733 19.89473 0.400865 1.837582 -23.911313 156.453671 -25.079077 -176.425494 24.818313 -38.652865 33.834912 59.607648 -30.493775 178.879531 36.517367 67.508377 11.307896 -104.108831 -57.185144 -115.462285 112.446508 18.574031 -165.683454 123.314357 -6.005123 174.869172 -93.916208 -49.05664 40.91043 167.517491 57.194119 -57.753538 -170.495704 78.241296 -0.056991 107.011882 56.065197 -179.216176 34.194577 -29.790996 -99.628235 9.530951 -18.167193 -62.459294 -140.428511 39.47602 -3.912213 -157.824847 -17.878489 -71.537756 -66.16573 -38.16465 20.348711 100.327827 -47.428912 -154.906364
-37.8006 58.169000000000004 2.7255000000000003 -15.117276 20.958687 1.004131 -0.127789 1.296013 -128.000534 -5.684189 8.854299 145.33822 -2.261672 16.406374 106.931046 -39.207239 -9.355199 -80.851027 -56.55384 -7.22699 13.391482 -2.194806 0.429627 -22.14833 -7.627771 16.147652 -5.912296 112.265803 -36.569274 38.371518 -131.68977 69.578212 -122.334406 -6.631679 -24.499284 5.534946 -16.392868 51.539579 -18.319972 8.891872 -18.975346 24.015909 -49.580468 61.170657 40.049256 -129.620523 -75.420676 -18.780397 23.996543 -62.997089 -29.150977 -156.653971 -12.548709 95.288093 -1.392124 26.626216 -15.235139 -116.960355 -17.99546 -174.852019 -28.749757 19.151127 71.534762 -56.999225 62.0926 -136.814277 -27.40247 -49.493872 -9.142069 117.634482 -20.317585 -170.269212 12.730859 21.061595 135.365848 -131.074056 -43.609164 -124.547745 -19.834991 -2.241686 -17.35399 96.558527 -56.467778 101.666516 168.21089 3.569504 -136.572128 -115.185877 65.446054 -146.733755 175.346495 -68.987679 177.870718 -30.300595 57.957053 -3.949099 10.784048 -37.897346 60.966922 -50.177417 -38.428503 -36.958357 -79.075064 -38.622716 61.283203 144.819428 -42.402176 4.037078 -95.923086 64.519323 -47.578598 81.701578 29.706498 -172.602453 34.549452 -45.719999 -2.470569 -67.100523 0.411579 -169.285883 117.023005 43.107065 1.411833 -108.099459 -64.018695 -175.626735 -29.849032 -67.118822 -155.214148 -92.695893 13.965719 22.675361
-38.9431 58.648 1.1189 -14.814644 17.066737 1.632528 -0.969334 4.381178 51.558377 4.554927 -10.967557 -33.524551 -3.901615 13.656284 105.8896 -36.571536 -10.985472 -79.271356 -38.830634 -5.288064 14.929086 -11.278653 0.084568 -0.856426 -6.019384 5.248106 -6.541965 75.443381 8.405657 22.38333 -5.657461 50.849817 112.135311 -6.08958 -24.347361 5.489362 -168.87475 -80.310413 131.210531 -99.134916 14.919326 84.770326 -86.709403 -79.714512 -135.273417 -33.460527 -12.888114 -152.850672 -131.810301 12.774896 155.423732 -120.394083 -43.339919 -172.436627 -88.423698 -47.945132 -89.996259 -62.566891 -59.202763 -64.442078 -52.651621 27.059276 87.390492 126.682081 -12.045001 16.025795 110.102929 53.213544 -118.050836 -146.14012 3.820584 -158.677166 176.500817 -27.182933 -39.677113 -154.123349 -24.57088 -142.457363 3.084461 11.508009 -13.866344 126.725141 -60.675558 164.343144 163.934241 -2.869823 -135.364367 20.233932 52.130773 74.56938 3.574695 -63.089673 7.222065 146.119823 -17.963195 -120.665138 -61.179655 35.325841 47.248251 46.645511 35.951952 -14.228474 -148.055684 10.563704 16.990307 -162.742466 19.538723 1.504943 -41.819483 22.825509 -36.339097 29.189094 -8.76995 -105.196345 -42.783716 -25.939272 56.177283 -32.95676 -23.84159 32.01557 -84.098099 29.551019 -1.866277 167.243524 -17.515593 -86.374599 -16.357008 -67.325259 84.491514 142.073515 30.188407 -93.220383
